<svg width="61" height="53" viewBox="0 0 61 53" fill="none" xmlns="http://www.w3.org/2000/svg">
<path d="M23.0078 17.2535C23.0078 18.7454 22.4152 20.1761 21.3603 21.231C20.3054 22.2859 18.8747 22.8785 17.3828 22.8785C15.891 22.8785 14.4602 22.2859 13.4053 21.231C12.3504 20.1761 11.7578 18.7454 11.7578 17.2535C11.7578 15.7617 12.3504 14.331 13.4053 13.2761C14.4602 12.2212 15.891 11.6285 17.3828 11.6285C18.8747 11.6285 20.3054 12.2212 21.3603 13.2761C22.4152 14.331 23.0078 15.7617 23.0078 17.2535Z" fill="#E51C23"/>
<path d="M8.00781 0.378601C6.01869 0.378601 4.11103 1.16878 2.70451 2.5753C1.29799 3.98182 0.507813 5.88948 0.507812 7.8786V45.3786C0.507813 47.3677 1.29799 49.2754 2.70451 50.6819C4.11103 52.0884 6.01869 52.8786 8.00781 52.8786H53.0078C54.9969 52.8786 56.9046 52.0884 58.3111 50.6819C59.7176 49.2754 60.5078 47.3677 60.5078 45.3786V7.8786C60.5078 5.88948 59.7176 3.98182 58.3111 2.5753C56.9046 1.16878 54.9969 0.378601 53.0078 0.378601H8.00781ZM53.0078 4.1286C54.0024 4.1286 54.9562 4.52369 55.6595 5.22695C56.3627 5.93021 56.7578 6.88404 56.7578 7.8786V32.2536L42.5941 24.9524C42.2424 24.7762 41.8442 24.7151 41.4559 24.7777C41.0676 24.8403 40.7088 25.0234 40.4303 25.3011L26.5178 39.2136L16.5428 32.5686C16.1827 32.3288 15.7507 32.221 15.3201 32.2634C14.8895 32.3057 14.4868 32.4957 14.1803 32.8011L4.25781 41.6286V7.8786C4.25781 6.88404 4.6529 5.93021 5.35616 5.22695C6.05942 4.52369 7.01325 4.1286 8.00781 4.1286H53.0078Z" fill="#E51C23"/>
</svg>
